<mxfile host="app.diagrams.net" agent="Mozilla/5.0 (Windows NT 10.0; Win64; x64) AppleWebKit/537.36 (KHTML, like Gecko) Chrome/135.0.0.0 Safari/537.36" version="26.2.6">
  <diagram name="DevSecOps Architecture" id="0">
    <mxGraphModel dx="790" dy="1154" grid="1" gridSize="10" guides="1" tooltips="1" connect="1" arrows="1" fold="1" page="1" pageScale="1" pageWidth="1500" pageHeight="900" math="0" shadow="0">
      <root>
        <mxCell id="0" />
        <mxCell id="1" parent="0" />
        <mxCell id="codeRepo" value="GitHub Repository" style="shape=rectangle;rounded=1;whiteSpace=wrap;html=1;fillColor=#f3f3f3;strokeColor=#0078d7;fontColor=#000000;" parent="1" vertex="1">
          <mxGeometry x="100" y="50" width="150" height="60" as="geometry" />
        </mxCell>
        <mxCell id="cicd" value="CI/CD Pipeline (GitHub Actions)" style="shape=rectangle;rounded=1;whiteSpace=wrap;html=1;fillColor=#e6f4ff;strokeColor=#0078d7;fontColor=#000000;" parent="1" vertex="1">
          <mxGeometry x="75" y="170" width="200" height="60" as="geometry" />
        </mxCell>
        <mxCell id="securityTools" value="Security Tools\n(Bandit, Dependency-Check, Trivy, ZAP Proxy)" style="shape=rectangle;rounded=1;whiteSpace=wrap;html=1;fillColor=#ffe6e6;strokeColor=#d9534f;fontColor=#000000;" parent="1" vertex="1">
          <mxGeometry x="275" y="300" width="200" height="100" as="geometry" />
        </mxCell>
        <mxCell id="appContainer" value="Application Container" style="shape=rectangle;rounded=1;whiteSpace=wrap;html=1;fillColor=#f9e6e6;strokeColor=#e68a00;fontColor=#000000;" parent="1" vertex="1">
          <mxGeometry x="350" y="50" width="200" height="60" as="geometry" />
        </mxCell>
        <mxCell id="observability" value="Observability\n(Prometheus + Grafana)" style="shape=rectangle;rounded=1;whiteSpace=wrap;html=1;fillColor=#e6ffe6;strokeColor=#5cb85c;fontColor=#000000;" parent="1" vertex="1">
          <mxGeometry x="560" y="140" width="200" height="100" as="geometry" />
        </mxCell>
        <mxCell id="connectionRepoPipeline" style="edgeStyle=orthogonalEdgeStyle;strokeWidth=2;endArrow=block;endFill=1;strokeColor=#0078d7;" parent="1" source="codeRepo" target="cicd" edge="1">
          <mxGeometry relative="1" as="geometry" />
        </mxCell>
        <mxCell id="connectionPipelineSecurity" style="edgeStyle=orthogonalEdgeStyle;strokeWidth=2;endArrow=block;endFill=1;strokeColor=#d9534f;" parent="1" source="cicd" target="securityTools" edge="1">
          <mxGeometry relative="1" as="geometry">
            <Array as="points">
              <mxPoint x="175" y="295" />
              <mxPoint x="240" y="295" />
            </Array>
          </mxGeometry>
        </mxCell>
        <mxCell id="connectionSecurityApp" style="edgeStyle=orthogonalEdgeStyle;strokeWidth=2;endArrow=block;endFill=1;strokeColor=#e68a00;" parent="1" source="securityTools" target="appContainer" edge="1">
          <mxGeometry relative="1" as="geometry" />
        </mxCell>
        <mxCell id="connectionAppObservability" style="edgeStyle=orthogonalEdgeStyle;strokeWidth=2;endArrow=block;endFill=1;strokeColor=#5cb85c;" parent="1" source="appContainer" target="observability" edge="1">
          <mxGeometry relative="1" as="geometry" />
        </mxCell>
        <mxCell id="iVP-c8MW5YRSeH4XT9-I-1" value="Backup" style="shape=rectangle;rounded=1;whiteSpace=wrap;html=1;fillColor=#e1d5e7;strokeColor=#9673a6;" vertex="1" parent="1">
          <mxGeometry x="560" y="300" width="200" height="100" as="geometry" />
        </mxCell>
        <mxCell id="iVP-c8MW5YRSeH4XT9-I-2" style="edgeStyle=orthogonalEdgeStyle;strokeWidth=2;endArrow=block;endFill=1;strokeColor=#9673a6;exitX=0.75;exitY=1;exitDx=0;exitDy=0;fillColor=#e1d5e7;" edge="1" parent="1" target="iVP-c8MW5YRSeH4XT9-I-1" source="appContainer">
          <mxGeometry relative="1" as="geometry">
            <mxPoint x="380" y="290" as="sourcePoint" />
            <Array as="points">
              <mxPoint x="500" y="270" />
              <mxPoint x="630" y="270" />
            </Array>
          </mxGeometry>
        </mxCell>
      </root>
    </mxGraphModel>
  </diagram>
</mxfile>
